# xmcd CD database file
#
# Track frame offsets:
#	150
#	11072
#	29770
#	47787
#	66147
#	85780
#	94755
#	114730
#	131910
#	146322
#	162772
#	180525
#
# Disc length: 2588 seconds
#
# Revision: 0
# Processed by: cddbd v1.5.2PL0 Copyright (c) Steve Scherf et al.
# Submitted via: CDex 1.75
#
DISCID=a20a1a0c
DTITLE=Enya - Watermark
DYEAR=1988
DGENRE=New Age
TTITLE0=Watermark
TTITLE1=Cursum Perficio
TTITLE2=On Your Shore
TTITLE3=Storms in Africa
TTITLE4=Eicile
TTITLE5=Miss Clare Remembers
TTITLE6=Orinoco Flow
TTITLE7=Evening Falls...
TTITLE8=River
TTITLE9=The Long Ships
TTITLE10=Na Lachia Geal M'oige
TTITLE11=Storms in Africa II
EXTD=YEAR: 1988
EXTT0=
EXTT1=
EXTT2=
EXTT3=
EXTT4=
EXTT5=
EXTT6=
EXTT7=
EXTT8=
EXTT9=
EXTT10=
EXTT11=
PLAYORDER=
